<?xml version="1.0" standalone="no"?>
<!DOCTYPE svg PUBLIC "-//W3C//DTD SVG 20010904//EN"
 "http://www.w3.org/TR/2001/REC-SVG-20010904/DTD/svg10.dtd">
<svg version="1.0" xmlns="http://www.w3.org/2000/svg"
 width="652.000000pt" height="326.000000pt" viewBox="0 0 652.000000 326.000000"
 preserveAspectRatio="xMidYMid meet">

<g transform="translate(0.000000,326.000000) scale(0.100000,-0.100000)"
fill="#000000" stroke="none">
<path d="M3620 1982 c0 -18 32 -52 49 -52 16 0 51 38 51 55 0 13 -30 3 -39
-12 -9 -17 -10 -17 -28 0 -21 18 -33 22 -33 9z"/>
<path d="M860 1924 c-8 -2 -36 -5 -61 -9 -109 -14 -197 -120 -187 -224 11
-109 67 -163 229 -219 114 -39 144 -65 144 -122 0 -123 -184 -174 -286 -79
l-32 30 -36 -33 c-20 -18 -38 -35 -41 -36 -3 -2 13 -19 34 -38 50 -43 119 -64
210 -64 152 0 256 94 256 230 0 104 -52 163 -185 206 -149 50 -185 77 -185
145 0 116 171 160 273 71 16 -15 21 -13 54 21 36 35 36 37 19 56 -33 36 -152
74 -206 65z"/>
<path d="M1257 1904 c-4 -4 -7 -175 -7 -381 l0 -373 50 0 50 0 -2 378 -3 377
-40 3 c-23 2 -44 0 -48 -4z"/>
<path d="M1787 1882 c-10 -10 -17 -33 -17 -50 0 -28 6 -35 50 -60 27 -15 50
-33 50 -40 0 -19 -28 -26 -57 -13 -19 9 -29 9 -39 0 -21 -17 -17 -25 22 -44
59 -28 124 1 124 56 0 29 -19 48 -81 82 -30 17 -31 19 -16 34 13 14 21 15 42
5 29 -13 45 -9 45 13 0 36 -95 48 -123 17z"/>
<path d="M1950 1881 c0 -16 8 -20 38 -23 l37 -3 5 -95 c4 -79 8 -95 22 -98 15
-3 18 8 20 95 l3 98 33 3 c24 2 32 8 32 23 0 17 -8 19 -95 19 -87 0 -95 -2
-95 -19z"/>
<path d="M2182 1783 c3 -110 4 -118 23 -118 16 0 21 8 23 38 4 46 33 51 59 10
20 -34 42 -53 60 -53 19 0 16 18 -7 50 l-20 29 20 33 c26 44 25 74 -5 103 -21
22 -33 25 -90 25 l-66 0 3 -117z m109 67 c40 -22 12 -70 -40 -70 -18 0 -21 6
-21 40 0 34 3 40 21 40 11 0 29 -5 40 -10z"/>
<path d="M2454 1881 c-63 -39 -67 -143 -8 -190 84 -66 194 -9 194 99 0 34 -6
48 -34 76 -28 28 -41 34 -77 34 -26 0 -57 -8 -75 -19z m110 -42 c51 -40 23
-129 -41 -129 -76 0 -100 112 -30 140 33 13 42 12 71 -11z"/>
<path d="M2688 1743 c-2 -87 0 -162 5 -168 5 -6 15 -1 28 14 17 20 19 40 19
167 l0 144 -24 0 -24 0 -4 -157z"/>
<path d="M2792 1783 c3 -110 4 -118 23 -118 18 0 20 8 23 69 l3 70 68 -73 c40
-43 73 -71 80 -67 7 5 11 48 11 122 l0 114 -25 0 c-24 0 -25 -2 -25 -65 0 -36
-4 -65 -8 -65 -5 0 -32 29 -62 65 -31 37 -62 65 -72 65 -17 0 -18 -9 -16 -117z"/>
<path d="M3052 1783 c3 -103 5 -118 21 -121 15 -3 17 8 17 117 0 115 -1 121
-20 121 -20 0 -21 -5 -18 -117z"/>
<path d="M3240 1780 c0 -113 1 -120 20 -120 19 0 20 7 20 120 0 113 -1 120
-20 120 -19 0 -20 -7 -20 -120z"/>
<path d="M3332 1783 c3 -110 4 -118 23 -118 18 0 20 8 23 63 2 34 7 62 11 62
4 0 35 -29 68 -65 33 -36 65 -65 72 -65 8 0 11 36 11 120 l0 120 -25 0 c-24 0
-25 -2 -25 -67 l-1 -68 -62 68 c-34 37 -70 67 -80 67 -16 0 -17 -10 -15 -117z"/>
<path d="M3582 1878 c2 -19 10 -24 46 -26 23 -2 42 -5 42 -8 0 -3 -21 -41 -46
-85 -28 -50 -42 -85 -36 -91 5 -5 42 -8 83 -6 68 3 74 5 77 26 3 20 -1 22 -42
22 -25 0 -46 3 -46 6 0 4 20 44 45 90 25 45 45 85 45 88 0 3 -39 6 -86 6 -83
0 -85 -1 -82 -22z"/>
<path d="M3792 1783 l3 -118 75 0 c68 0 75 2 75 20 0 17 -8 20 -52 23 -49 3
-53 5 -53 28 0 20 5 24 30 24 23 0 30 4 30 20 0 16 -7 20 -30 20 -27 0 -30 3
-30 30 0 30 1 30 55 30 48 0 55 2 55 20 0 18 -7 20 -80 20 l-81 0 3 -117z"/>
<path d="M3992 1783 c3 -110 4 -118 23 -118 18 0 20 8 23 70 l3 70 69 -74 c38
-40 73 -70 79 -66 7 4 11 50 11 121 l0 114 -25 0 c-24 0 -25 -2 -25 -67 l-1
-68 -63 68 c-92 97 -97 94 -94 -50z"/>
<path d="M4252 1783 c3 -110 4 -118 23 -118 19 0 20 8 23 118 l3 117 -26 0
-26 0 3 -117z"/>
<path d="M4342 1783 c3 -110 4 -118 23 -118 16 0 21 8 23 38 3 31 7 37 25 37
15 0 29 -11 42 -32 22 -38 33 -48 58 -48 17 0 17 4 -6 43 -25 42 -25 42 -6 66
25 30 24 72 -2 105 -19 24 -27 26 -90 26 l-70 0 3 -117z m112 71 c9 -3 16 -17
16 -30 0 -25 -26 -44 -59 -44 -18 0 -21 6 -21 40 0 36 3 40 24 40 13 0 31 -3
40 -6z"/>
<path d="M4572 1783 c3 -110 4 -118 23 -118 19 0 20 8 23 118 l3 117 -26 0
-26 0 3 -117z"/>
<path d="M4672 1783 c3 -103 5 -118 21 -121 15 -3 17 5 17 62 0 36 4 66 9 66
6 0 34 -25 63 -56 89 -94 88 -94 88 46 0 113 -1 120 -20 120 -18 0 -20 -7 -20
-65 0 -36 -3 -65 -7 -65 -5 0 -34 29 -66 65 -83 93 -88 90 -85 -52z"/>
<path d="M4954 1866 c-30 -30 -34 -40 -34 -84 0 -43 5 -55 30 -81 39 -38 85
-48 133 -27 36 14 37 17 37 66 l0 51 -42 -3 c-36 -2 -44 -7 -46 -25 -3 -19 1
-23 22 -23 34 0 34 -18 0 -26 -58 -15 -107 40 -85 94 17 41 54 56 97 40 27
-10 37 -9 46 1 21 21 -25 51 -79 51 -38 0 -50 -5 -79 -34z"/>
<path d="M5350 1855 c0 -44 0 -45 -33 -45 -43 0 -67 -26 -67 -72 0 -49 28 -72
90 -73 l50 -1 0 118 c0 111 -1 118 -20 118 -17 0 -20 -7 -20 -45z m-2 -118 c3
-26 1 -28 -25 -25 -31 3 -44 35 -21 49 23 15 43 5 46 -24z"/>
<path d="M5541 1784 c-39 -50 -16 -108 46 -120 67 -13 110 77 60 124 -33 31
-80 29 -106 -4z m79 -29 c17 -21 5 -45 -24 -45 -27 0 -42 26 -25 46 15 18 33
18 49 -1z"/>
<path d="M5811 1784 c-26 -33 -27 -65 -3 -93 43 -53 132 -24 132 43 0 71 -86
104 -129 50z m79 -29 c17 -21 5 -45 -24 -45 -27 0 -42 26 -25 46 15 18 33 18
49 -1z"/>
<path d="M5433 1704 c-3 -8 2 -23 11 -32 15 -15 17 -15 32 0 21 21 11 48 -16
48 -11 0 -23 -7 -27 -16z"/>
<path d="M5706 1704 c-4 -10 -1 -24 7 -31 19 -19 49 -5 45 21 -4 27 -43 34
-52 10z"/>
<path d="M5976 1704 c-4 -10 -1 -24 7 -31 19 -19 49 -5 45 21 -4 27 -43 34
-52 10z"/>
<path d="M1772 1168 l-2 -78 45 0 c54 0 60 18 8 22 l-38 3 -6 65 -6 65 -1 -77z"/>
<path d="M1900 1160 c0 -47 -3 -96 -6 -110 -6 -21 -5 -23 7 -12 18 17 26 179
10 195 -8 8 -11 -12 -11 -73z"/>
<path d="M1961 1183 c-1 -70 13 -93 59 -93 38 0 50 24 49 97 l-2 58 -6 -55
c-8 -67 -15 -80 -46 -80 -31 0 -38 13 -46 80 l-6 55 -2 -62z"/>
<path d="M2110 1165 l0 -75 39 0 c23 0 46 7 55 16 20 19 20 25 2 50 -10 13
-11 23 -4 31 19 24 -9 53 -52 53 l-40 0 0 -75z m75 35 c0 -9 -11 -16 -27 -18
-23 -3 -28 1 -28 18 0 17 5 21 28 18 16 -2 27 -9 27 -18z m4 -49 c23 -15 5
-41 -29 -41 -25 0 -30 4 -30 25 0 19 5 25 23 25 12 0 28 -4 36 -9z"/>
<path d="M2250 1165 l0 -75 45 0 c25 0 45 5 45 10 0 6 -16 10 -35 10 l-35 0 0
65 c0 37 -4 65 -10 65 -6 0 -10 -32 -10 -75z"/>
<path d="M2385 1152 c-1 -48 -3 -91 -5 -97 -3 -5 0 -12 5 -15 6 -3 11 33 13
98 1 56 -1 102 -5 102 -4 0 -8 -39 -8 -88z"/>
<path d="M2620 1165 c0 -85 17 -103 22 -22 l3 52 52 -55 53 -55 0 79 c0 44 -3
77 -6 73 -4 -3 -6 -24 -6 -46 0 -22 -3 -43 -8 -46 -4 -3 -27 17 -51 45 -23 27
-46 50 -51 50 -4 0 -8 -34 -8 -75z"/>
<path d="M2504 1219 c-23 -38 -62 -124 -58 -128 3 -3 9 1 13 8 13 21 85 25
101 6 28 -33 25 -11 -7 55 -19 39 -36 70 -38 70 -2 0 -7 -5 -11 -11z m26 -48
c16 -30 12 -41 -13 -41 -32 0 -38 8 -25 36 14 29 24 30 38 5z"/>
<path d="M2852 1218 c-15 -19 -63 -128 -56 -128 3 0 12 7 20 15 20 20 73 19
96 -2 26 -23 22 -7 -16 65 -26 52 -34 61 -44 50z m28 -47 c16 -30 12 -41 -13
-41 -32 0 -38 8 -25 36 14 29 24 30 38 5z"/>
</g>
</svg>
